<?xml version="1.0" encoding="UTF-8" standalone="no"?><!DOCTYPE svg PUBLIC "-//W3C//DTD SVG 1.1//EN" "http://www.w3.org/Graphics/SVG/1.1/DTD/svg11.dtd"><svg width="100%" height="100%" viewBox="0 0 128 128" version="1.1" xmlns="http://www.w3.org/2000/svg" xmlns:xlink="http://www.w3.org/1999/xlink" xml:space="preserve" xmlns:serif="http://www.serif.com/" style="fill-rule:evenodd;clip-rule:evenodd;stroke-linecap:round;stroke-linejoin:round;stroke-miterlimit:1.5;"><rect id="Artboard1" x="0" y="0" width="128" height="128" style="fill:none;"/><clipPath id="_clip1"><rect x="0" y="0" width="128" height="128"/></clipPath><g clip-path="url(#_clip1)"><path d="M129.463,-24.462l22.852,150l-160.568,24.462l-22.852,-150l160.568,-24.462Z" style="fill:url(#_Linear2);"/><rect x="20.666" y="23.417" width="86.668" height="81.165" style="fill:#fff;stroke:#595b5b;stroke-width:0.83px;"/><path d="M59.734,43.103l0,12.871c0,1.103 -0.896,1.999 -1.999,1.999l-22.309,0c-1.103,0 -1.999,-0.896 -1.999,-1.999l0,-12.871c0,-1.103 0.896,-1.999 1.999,-1.999l22.309,0c1.103,0 1.999,0.896 1.999,1.999Z" style="fill:#ff0505;"/><path d="M93.915,43.323l0,12.871c0,1.103 -0.896,1.999 -1.999,1.999l-22.309,0c-1.103,0 -1.999,-0.896 -1.999,-1.999l0,-12.871c0,-1.103 0.896,-1.999 1.999,-1.999l22.309,0c1.103,0 1.999,0.896 1.999,1.999Z" style="fill:#ff0505;"/><path d="M59.734,71.588l0,12.871c0,1.103 -0.896,1.999 -1.999,1.999l-22.309,0c-1.103,0 -1.999,-0.896 -1.999,-1.999l0,-12.871c0,-1.103 0.896,-1.999 1.999,-1.999l22.309,0c1.103,0 1.999,0.896 1.999,1.999Z" style="fill:#ff0505;"/><path d="M93.915,71.588l0,12.871c0,1.103 -0.896,1.999 -1.999,1.999l-22.309,0c-1.103,0 -1.999,-0.896 -1.999,-1.999l0,-12.871c0,-1.103 0.896,-1.999 1.999,-1.999l22.309,0c1.103,0 1.999,0.896 1.999,1.999Z" style="fill:#ff0505;"/><g transform="matrix(23.182466,0,0,23.182466,22.262086,125.01005)"></g><text x="1.842px" y="125.01px" style="font-family:'BradleyHandITC', 'Bradley Hand ITC', cursive;font-size:23.182px;fill:#fcfcfc;">Z</text><path d="M50.435,49.539l-7.708,4.753l0,-9.506l7.708,4.753Z" style="fill:#fff;"/><path d="M84.616,49.758l-7.708,4.753l0,-9.506l7.708,4.753Z" style="fill:#fff;"/><path d="M50.435,78.023l-7.708,4.753l0,-9.506l7.708,4.753Z" style="fill:#fff;"/><path d="M84.616,78.023l-7.708,4.753l0,-9.506l7.708,4.753Z" style="fill:#fff;"/></g><defs><linearGradient id="_Linear2" x1="0" y1="0" x2="1" y2="0" gradientUnits="userSpaceOnUse" gradientTransform="matrix(160.568196,-24.461983,22.851957,150.000001,-19.679166,75.000001)"><stop offset="0" style="stop-color:#cf0008;stop-opacity:1"/><stop offset="0.56" style="stop-color:#8f0002;stop-opacity:1"/><stop offset="1" style="stop-color:#740000;stop-opacity:1"/></linearGradient></defs></svg>